<?xml version="1.0" encoding="utf-8"?>
<!-- Generator: Adobe Illustrator 18.1.0, SVG Export Plug-In . SVG Version: 6.00 Build 0)  -->
<svg version="1.1" baseProfile="tiny" id="Layer_1" xmlns="http://www.w3.org/2000/svg" xmlns:xlink="http://www.w3.org/1999/xlink"
	 x="0px" y="0px" viewBox="0 0 243.3 36" xml:space="preserve">
<path fill="#CC007B" d="M231.9,27.5c-2.8,0-4.3-1.2-4.3-3.5c0-2.6,1.7-4.5,8.1-4.5h2.4v5.4C236.5,26.6,234.6,27.5,231.9,27.5z
	 M227.3,13.8c1.5-2,3.4-3.3,5.9-3.3c3.3,0,4.8,2,4.8,5.4v1.8h-2.4c-8.1,0-10.5,2.8-10.5,6.4c0,3.2,2.3,5.3,6.4,5.3
	c2.5,0,5-0.9,6.8-2.6c0.4,1.3,1.6,2.4,3.5,2.4c0.5,0,1-0.1,1.4-0.2v-1.5h-0.6c-1.4,0-2.1-0.8-2.1-2.1v-9.5c0-4.2-2-7.4-7.1-7.4
	c-3.3,0-5.7,1.6-7.6,4.2L227.3,13.8z M216.6,0v3.9h2.4V0H216.6z M216.6,8.9V29h2.5V8.9H216.6z M203.9,27.4c4,0,5.1,1,5.1,2.8
	c0,1.9-1.1,4-7.8,4c-3.9,0-6.4-1-6.4-3.3c0-1.7,0.8-2.8,2.6-3.5H203.9z M195.7,15.1c0-3.2,1.4-4.6,5.6-4.6c4.1,0,5.7,1.4,5.7,4.6
	c0,3.2-1.2,4.5-5.7,4.5C196.9,19.6,195.7,18.3,195.7,15.1z M201.3,21.5c5.6,0,8.1-2.2,8.1-6.4c0-1.5-0.3-2.7-0.9-3.7
	c1.3-1,2.4-2.5,2.9-4.3L210,6.6c-0.4,1.1-1.5,2.4-3,3.3c-1.3-0.8-3.2-1.3-5.6-1.3c-5.6,0-8,2.2-8,6.5c0,2.1,0.6,3.7,1.9,4.8
	c-2.2,0.8-3.2,2.3-3.2,3.7c0,1.8,1.1,3.1,3,3.6v0.1c-1.5,0.8-2.3,2.3-2.3,3.8c0,3.3,2.9,5,8.6,5c6.4,0,10.1-2.4,10.1-6
	c0-2.8-1.8-4.6-7.3-4.6h-6.5c-2.4,0-3.3-0.9-3.3-2.1c0-1,0.6-2,2.5-2.5C197.9,21.2,199.4,21.5,201.3,21.5z M188.7,9.2
	c-0.8-0.4-2-0.6-2.9-0.6c-2.9,0-5.1,1.6-6.4,4.7h-0.1l-0.1-4.3H177V29h2.5V17.8c0.3-3.7,2.4-7,6.3-7c0.9,0,1.7,0.2,2.4,0.5
	L188.7,9.2z M156.2,16.2c0-3.2,1.9-5.7,6.2-5.7c4.3,0,6.2,2.5,6.2,5.7v5.5c0,3.2-1.9,5.6-6.2,5.6s-6.2-2.4-6.2-5.6V16.2z
	 M171.2,16.2c0-4.4-3.1-7.6-8.7-7.6s-8.7,3.2-8.7,7.6v5.6c0,4.4,3.1,7.5,8.7,7.5c5.6,0,8.7-3.1,8.7-7.5V16.2z M135.2,16.1
	c0-3.1,1.8-5.6,5.9-5.6c3.7,0,6,2.2,6,5.5v1.2h-11.8V16.1z M149.3,18.8v-2.6c0-4.3-3.1-7.7-8.3-7.7c-5.2,0-8.3,3.2-8.3,7.6v5.5
	c0,4.5,3.1,7.7,8.6,7.7c4.1,0,6.7-1.8,8-4.9l-1.8-0.8c-1.4,2.6-3.2,3.7-6.1,3.7c-3.9,0-6.2-2.2-6.2-5.8v-2.8H149.3z M121.6,27.4
	c4,0,5.1,1,5.1,2.8c0,1.9-1.1,4-7.8,4c-3.9,0-6.4-1-6.4-3.3c0-1.7,0.8-2.8,2.6-3.5H121.6z M113.4,15.1c0-3.2,1.4-4.6,5.6-4.6
	c4.1,0,5.7,1.4,5.7,4.6c0,3.2-1.2,4.5-5.7,4.5C114.6,19.6,113.4,18.3,113.4,15.1z M119,21.5c5.6,0,8.1-2.2,8.1-6.4
	c0-1.5-0.3-2.7-0.9-3.7c1.3-1,2.4-2.5,2.9-4.3l-1.4-0.5c-0.4,1.1-1.5,2.4-3,3.3c-1.3-0.8-3.2-1.3-5.6-1.3c-5.6,0-8,2.2-8,6.5
	c0,2.1,0.6,3.7,1.9,4.8c-2.2,0.8-3.2,2.3-3.2,3.7c0,1.8,1.1,3.1,3,3.6v0.1c-1.5,0.8-2.3,2.3-2.3,3.8c0,3.3,2.9,5,8.6,5
	c6.4,0,10.1-2.4,10.1-6c0-2.8-1.8-4.6-7.3-4.6h-6.5c-2.4,0-3.3-0.9-3.3-2.1c0-1,0.6-2,2.5-2.5C115.6,21.2,117,21.5,119,21.5z
	 M105.2,8.9H99V3h-1.9l-0.6,5.8L93.2,9v1.5l3.2,0.5v12.3c0,3.8,1.7,6,5.2,6c1.5,0,2.5-0.3,3.5-0.8l-0.4-1.6
	c-0.7,0.2-1.5,0.4-2.3,0.4c-2,0-3.4-0.9-3.4-3.9V10.9h6.3V8.9z M75.8,16.1c0-3.1,1.8-5.6,5.9-5.6c3.7,0,6,2.2,6,5.5v1.2H75.8V16.1z
	 M89.9,18.8v-2.6c0-4.3-3.1-7.7-8.3-7.7c-5.2,0-8.3,3.2-8.3,7.6v5.5c0,4.5,3.1,7.7,8.6,7.7c4.1,0,6.7-1.8,8-4.9l-1.8-0.8
	c-1.4,2.6-3.2,3.7-6.1,3.7c-3.9,0-6.2-2.2-6.2-5.8v-2.8H89.9z M54.8,16.1c0-3.1,1.8-5.6,5.9-5.6c3.7,0,6,2.2,6,5.5v1.2H54.8V16.1z
	 M68.9,18.8v-2.6c0-4.3-3.1-7.7-8.3-7.7c-5.2,0-8.3,3.2-8.3,7.6v5.5c0,4.5,3.1,7.7,8.6,7.7c4.1,0,6.7-1.8,8-4.9l-1.8-0.8
	c-1.4,2.6-3.2,3.7-6.1,3.7c-3.9,0-6.2-2.2-6.2-5.8v-2.8H68.9z M39.5,29h2.7l7-20.1h-2.7l-5.6,17.6h-0.1L35,8.9h-2.5l-5.8,17.6h-0.1
	L21,8.9h-2.7L25.2,29h2.7l5.8-17.6h0.1L39.5,29z M14.9,12.4c-1.5-2.5-4-3.8-7.3-3.8c-4.9,0-7.3,2.6-7.3,5.5c0,7,12.5,4.3,12.5,9.5
	c0,2.3-1.7,4-5,4c-2.6,0-4.9-1-6.2-3.3l-1.6,1c1.7,2.9,4.4,4.2,8,4.2c4.3,0,7.3-2.4,7.3-6c0-7.1-12.5-4.4-12.5-9.5
	c0-1.9,1.6-3.4,4.9-3.4c2.6,0,4.4,1,5.6,2.9L14.9,12.4z"/>
</svg>
