<svg width="375" height="64" viewBox="0 0 375 64" xmlns="http://www.w3.org/2000/svg"><title>Fill 1</title><path d="M366.432 48.793c0-2.204 1.726-3.937 3.922-3.937s3.922 1.733 3.922 3.937c0 2.207-1.726 3.94-3.922 3.94s-3.922-1.733-3.922-3.94zM353.49 34.148c0-10.552-5.648-15.278-11.138-15.278-5.57 0-10.67 4.96-10.67 15.434 0 10.552 5.65 15.2 11.14 15.2 5.57 0 10.668-4.882 10.668-15.356zm-27.22.392c0-11.024 7.53-18.505 16.316-18.505 9.178 0 16.317 7.008 16.317 17.877 0 11.024-7.53 18.426-16.317 18.426-9.177 0-16.316-6.93-16.316-17.798zm-37.968.474c0-11.184 6.67-18.98 17.18-18.98 7.61 0 13.022 5.514 13.022 9.924 0 2.598-1.65 4.725-4.08 4.725-2.354 0-3.843-1.812-3.843-3.858 0-1.733.94-3.23 2.98-3.94-1.41-1.968-4.077-4.015-8.236-4.015-7.138 0-11.61 6.38-11.61 15.514 0 8.977 4.472 14.568 11.297 14.568 5.492 0 8.707-3.07 10.907-8.505h2.98c-2.12 7.874-7.532 11.89-14.984 11.89-8.865 0-15.61-7.165-15.61-17.323zm-37.81-11.498c5.49-2.914 7.607-6.615 7.607-10.79 0-4.016-2.433-7.007-6.355-7.007-4.55 0-7.218 3.462-7.218 7.244 0 3.543 1.258 6.22 5.964 10.552zm9.568 19.687c-2.98-5.434-6.432-9.842-12.942-15.83-6.355 2.994-9.65 6.54-9.65 12.05 0 4.805 4 9.53 10.434 9.53 4.314 0 8.394-2.047 12.158-5.75zm21.337-21.106v3.152h-6.118c-2.276 5.353-5.413 11.574-9.728 16.773 3.06 4.96 4.942 6.695 7.373 6.695 2.12 0 3.608-1.655 5.18-5.28l2.352 1.026c-1.805 5.04-4.394 8.425-8.942 8.425-3.61 0-6.59-1.81-9.806-7.088-4.395 4.646-9.415 7.087-15.457 7.087-8.707 0-14.354-5.827-14.354-12.837 0-6.458 4.078-10.945 13.1-14.647-3.374-3.386-5.258-6.85-5.258-11.104 0-6.3 5.648-11.497 12.24-11.497 6.822 0 10.902 5.04 10.902 9.686 0 4.962-2.354 8.9-10.434 12.836 5.02 4.726 8.396 9.137 11.376 14.097 3.138-3.858 6.12-9.765 7.923-14.174h-6.277v-3.153h15.924zm-82.84 9.137h19.3c-.55-7.954-3.687-12.364-8.944-12.364-5.492 0-9.57 4.646-10.355 12.364zm-.155 3.15c.077 9.45 4.863 14.49 11.453 14.49 4.315 0 8.08-1.576 10.2-7.168h2.9c-2.196 6.932-7.138 10.632-13.884 10.632-9.65 0-16.08-7.166-16.08-17.798 0-10.788 7.294-18.505 16.08-18.505 9.885 0 14.355 9.057 14.122 18.35h-24.79zm-43.38.63c0-11.184 6.668-18.98 17.18-18.98 7.61 0 13.02 5.514 13.02 9.924 0 2.598-1.647 4.725-4.078 4.725-2.353 0-3.844-1.812-3.844-3.858 0-1.733.942-3.23 2.982-3.94-1.412-1.968-4.08-4.015-8.237-4.015-7.14 0-11.61 6.38-11.61 15.514 0 8.977 4.47 14.568 11.296 14.568 5.49 0 8.708-3.07 10.905-8.505h2.98c-2.118 7.874-7.53 11.89-14.984 11.89-8.863 0-15.61-7.165-15.61-17.323zM109.286 48.48h5.96V19.893h-5.96v-3.15h10.825V25.8c4.315-7.56 9.257-9.765 13.337-9.765 6.12 0 9.57 3.78 9.57 11.182V48.48h5.882v3.15h-16.395v-3.15H138V30.052c0-3.86-.47-6.536-2.04-8.11-1.257-1.34-2.904-1.732-4.708-1.732-5.883 0-10.982 6.85-10.982 11.34v16.93h5.492v3.15h-16.475v-3.15zM90.07 4.458C90.07 2.254 91.636.52 93.91.52c1.96 0 3.686 1.575 3.686 3.86 0 2.362-1.647 3.938-3.686 3.938-2.196 0-3.843-1.497-3.843-3.86zM85.125 48.48h6.746V19.893h-6.746v-3.15h11.767V48.48h6.746v3.15H85.125v-3.15zm-39.303-7.325V19.893H39.94v-3.15h10.905V38.32c0 3.86.393 6.616 2.04 8.27 1.177 1.26 2.903 1.575 4.628 1.575 5.806 0 10.747-6.85 10.747-11.34V19.892h-6.197v-3.15h11.22V48.48h5.96v3.15H68.418v-9.057c-4.236 7.56-9.1 9.765-13.1 9.765-5.962 0-9.495-3.78-9.495-11.183zM5.896 34.148c0 10.395 4.47 14.017 9.02 14.017 5.884 0 10.512-6.538 10.512-15.04 0-8.033-4.392-13.625-10.118-13.625-5.336 0-9.414 4.883-9.414 14.648zm7.53 17.482c-3.452 0-5.883-1.104-8.237-3.386C2.05 45.014.483 39.894.483 34.148c0-5.828 1.96-11.185 5.176-14.412 2.353-2.363 5.098-3.7 8.787-3.7 4.785 0 9.492 3.15 11.532 8.583l2.037-8.35h2.433v43.787h5.962v3.15h-18.67v-3.15h7.686V42.652c-2.823 6.14-7.06 8.978-12.002 8.978z" fill="#4B4B4B" fill-rule="evenodd"/></svg>